<?xml version="1.0" standalone="no"?><!DOCTYPE svg PUBLIC "-//W3C//DTD SVG 1.1//EN" "http://www.w3.org/Graphics/SVG/1.1/DTD/svg11.dtd"><svg t="1748770144235" class="icon" viewBox="0 0 1026 1024" version="1.1" xmlns="http://www.w3.org/2000/svg" p-id="6631" xmlns:xlink="http://www.w3.org/1999/xlink" width="128.25" height="128"><path d="M964.296653 477.265735L772.115964 146.153094c-14.301819-24.900488-40.990034-40.09617-69.721366-40.09617l-382.956733 0.893864c-28.731332 0.127695-55.291852 15.578767-69.465976 40.351559l-190.648351 332.006505c-14.301819 24.900488-14.174124 55.674937 0.25539 80.44773l192.180688 331.112641c14.301819 24.772793 40.990034 40.09617 69.849061 40.09617l382.956733-0.893864c28.731332-0.127695 55.291852-15.578767 69.465977-40.35156l190.520655-332.134199c14.174124-24.900488 14.174124-55.674937-0.255389-80.320035z m-479.23862-94.494159l67.933638-68.189028c1.404643-1.021558 3.575455-0.25539 3.575455 1.660032l0.127695 30.391365c0 0.893864 0.766169 1.915422 1.532338 1.915422 74.190684 15.578767 130.3764 81.724678 130.504095 160.384681 0 20.303475-3.830844 41.628508-10.470975 59.76117l-81.469288 0.25539c12.769481-15.961851 20.303475-37.925358 20.303475-59.761171-0.127695-38.436138-23.751235-71.509093-57.590359-85.427827-1.276948-0.638474-2.809286 0.25539-2.809286 1.915422v26.688215c0 1.915422-2.170812 2.681591-3.44776 1.404643l-68.189028-67.933639c-0.766169-0.893864-0.766169-2.170812 0-3.064675z m-104.454354 291.144165l-101.261984 0.25539-0.127695-71.764483 39.457696-0.127695c0.766169 0 1.276948 0.25539 1.660033 0.893864 15.706462 27.454384 34.988378 50.43945 61.421203 67.039775 1.660033 1.149253 0.893864 3.703149-1.149253 3.703149z m390.235337-34.988377L702.777683 707.371781c-1.276948 0.766169-3.44776-0.25539-3.44776-1.915422l-0.127695-30.26367c0-1.149253-0.766169-2.043117-2.043117-2.043116l-182.092798 0.383084h-20.303475c-56.185716 0.127695-106.242081-28.092858-135.739582-71.381399-18.132663-26.432826-28.731332-58.101138-28.859027-92.451042-0.25539-83.001626 61.548898-151.956823 141.613544-163.066271 1.915422-0.25539 2.936981 2.043117 1.660032 3.44776l-32.689871 33.072955c-0.766169 0.766169-0.766169 2.043117 0 2.936981l31.029839 30.774449c1.149253 1.149253 0.638474 2.936981-0.766169 3.44776-39.840781 10.598669-69.210587 46.99169-68.699808 90.152535 0.383084 51.077924 43.033151 91.812568 94.111075 91.684873h18.898832l135.611887-0.383084 46.480911-0.127695c1.149253 0 2.043117-0.766169 2.043117-2.043117l-0.127695-35.116072 71.636788 71.381398c0.638474 0.893864 0.638474 2.170812-0.127695 3.064676z" fill="#3371E3" p-id="6632"></path></svg>