<?xml version="1.0" standalone="no"?><!DOCTYPE svg PUBLIC "-//W3C//DTD SVG 1.1//EN" "http://www.w3.org/Graphics/SVG/1.1/DTD/svg11.dtd"><svg t="1748770054252" class="icon" viewBox="0 0 1024 1024" version="1.1" xmlns="http://www.w3.org/2000/svg" p-id="3580" xmlns:xlink="http://www.w3.org/1999/xlink" width="128" height="128"><path d="M406.292313 484.892208h203.484828v44.732795h-203.484828z" fill="#FE6B04" p-id="3581"></path><path d="M412.92462 655.159055c-10.668137-7.366094-66.63352-25.033432-66.633519-25.033431h-3.217375c-30.028829 0-54.384919-24.35609-54.384919-54.384919v-128.666759c0-30.028829 24.35609-54.384919 54.384919-54.384918h6.829865c16.651324-5.475181 48.599289-16.340876 56.388722-21.731389 10.668137-7.366094 44.535237-43.434556 44.535237-43.434557H320.326324c-54.356696 0-98.440372 44.083676-98.440372 98.440372v174.189786c0 54.356696 44.083676 98.440372 98.440372 98.440371h137.161756c-0.028223 0-33.895323-36.068462-44.56346-43.434556z" fill="#FE6B04" p-id="3582"></path><path d="M460.705454 700.004741h-140.407353c-55.062261 0-99.851501-44.78924-99.851501-99.851501v-174.189786c0-55.062261 44.78924-99.851501 99.851501-99.851501h133.803269l-2.229584 2.370697c-1.382907 1.467574-34.092881 36.26602-44.761018 43.632114-7.845878 5.418736-38.918943 16.030427-56.755615 21.900725l-0.451562 0.056446h-6.829865c-29.210374 0-52.973789 23.763415-52.973789 52.973789V575.740705c0 29.210374 23.763415 52.973789 52.973789 52.973789l3.640713 0.056446c2.286029 0.733787 56.275832 17.80845 67.000414 25.202767 10.668137 7.366094 43.378111 42.16454 44.761017 43.632114l2.229584 2.39892z m-140.407353-371.070529c-53.510018 0-97.029242 43.519224-97.029242 97.029242v174.189786c0 53.510018 43.519224 97.029242 97.029242 97.029242h133.887937c-7.732988-8.156327-33.217981-34.770223-42.079873-40.866301-10.04724-6.942756-62.315465-23.59408-66.040845-24.779428h-2.991594c-30.762616 0-55.796048-25.033432-55.796048-55.796048v-128.666759c0-30.762616 25.033432-55.796048 55.796048-55.796047h6.604085c29.972384-9.849682 50.320867-17.667337 55.82427-21.477386 8.861891-6.096078 34.346884-32.709974 42.079872-40.866301h-127.283852z" fill="#FE6B04" p-id="3583"></path><path d="M700.992531 327.523082h-135.299066c14.957969 14.732189 29.944161 29.436155 44.902131 44.168344 18.711573 6.999201 37.451368 13.998401 56.162941 20.969379h11.486592c30.028829 0 54.384919 24.35609 54.384918 54.384919V575.740705c0 30.028829-24.35609 54.384919-54.384918 54.384919-20.32026 8.099881-40.668743 16.199763-60.989004 24.299644-14.957969 14.732189-29.944161 29.436155-44.90213 44.168343h128.694981c54.356696 0 98.440372-44.083676 98.440372-98.440371v-174.189786c-0.056445-54.356696-44.140121-98.440372-98.496817-98.440372z" fill="#FE6B04" p-id="3584"></path><path d="M700.992531 700.004741h-132.138136l47.837279-46.905934 61.525232-24.384313c29.210374 0 52.973789-23.763415 52.973789-52.973789v-128.666759c0-29.210374-23.763415-52.973789-52.973789-52.973789l-11.966375-0.084668-56.642726-21.30805-47.357495-46.595486h138.770444c55.062261 0 99.851501 44.78924 99.8515 99.851501v174.189786c-0.028223 55.062261-44.817463 99.851501-99.879723 99.851501z m-125.223603-2.822259h125.223603c53.510018 0 97.029242-43.519224 97.029242-97.029242v-174.189786c0-53.510018-43.519224-97.029242-97.029242-97.029242h-131.855911l42.249208 41.543643 55.654935 20.800044h11.204366c30.762616 0 55.796048 25.033432 55.796047 55.796047V575.740705c0 30.677948-24.892319 55.654935-55.513822 55.796048l-60.480996 24.102086-42.27743 41.543643z" fill="#FE6B04" p-id="3585"></path></svg>