<svg xmlns="http://www.w3.org/2000/svg" width="24" height="24" viewBox="0 0 24 24" fill="currentColor">
  <path d="M20.317 4.369a19.791 19.791 0 0 0-4.885-1.515.07.07 0 0 0-.073.035c-.211.375-.444.864-.608 1.249a18.524 18.524 0 0 0-5.487 0 12.51 12.51 0 0 0-.617-1.249.07.07 0 0 0-.073-.035A19.736 19.736 0 0 0 3.677 4.369a.064.064 0 0 0-.03.027C.533 9.09-.32 13.579.099 18.021a.08.08 0 0 0 .028.056c2.052 1.507 4.042 2.422 5.992 3.029a.07.07 0 0 0 .076-.027c.461-.63.873-1.295 1.226-1.994a.07.07 0 0 0-.038-.098c-.652-.247-1.27-.549-1.872-.892a.07.07 0 0 1-.007-.117c.126-.094.252-.192.371-.291a.07.07 0 0 1 .073-.01c3.927 1.793 8.18 1.793 12.061 0a.07.07 0 0 1 .074.009c.12.099.245.198.372.292a.07.07 0 0 1-.006.117 12.298 12.298 0 0 1-1.873.891.07.07 0 0 0-.038.099c.36.698.772 1.362 1.225 1.993a.07.07 0 0 0 .076.028c1.961-.607 3.951-1.522 6.003-3.029a.07.07 0 0 0 .028-.055c.5-5.177-.838-9.637-3.548-13.625a.061.061 0 0 0-.03-.028zM8.02 15.331c-1.183 0-2.157-1.085-2.157-2.419 0-1.333.955-2.418 2.157-2.418 1.21 0 2.175 1.094 2.157 2.418 0 1.334-.955 2.419-2.157 2.419zm7.974 0c-1.183 0-2.157-1.085-2.157-2.419 0-1.333.955-2.418 2.157-2.418 1.21 0 2.175 1.094 2.157 2.418 0 1.334-.947 2.419-2.157 2.419z"/>
</svg>